<?xml version="1.0" standalone="no"?>
<!DOCTYPE svg PUBLIC "-//W3C//DTD SVG 20010904//EN"
 "http://www.w3.org/TR/2001/REC-SVG-20010904/DTD/svg10.dtd">
<svg version="1.0" xmlns="http://www.w3.org/2000/svg"
 width="512.000000pt" height="512.000000pt" viewBox="0 0 512.000000 512.000000"
 preserveAspectRatio="xMidYMid meet">
<metadata>
Created by potrace 1.14, written by Peter Selinger 2001-2017
</metadata>
<g transform="translate(0.000000,512.000000) scale(0.100000,-0.100000)"
fill="#000000" stroke="none">
<path d="M2499 5116 c-2 -2 -39 -6 -81 -10 -43 -4 -83 -8 -90 -11 -7 -2 -31
-6 -53 -9 -22 -3 -78 -14 -125 -25 -473 -111 -811 -358 -1004 -731 -73 -143
-112 -265 -142 -445 -13 -80 -12 -380 1 -470 19 -128 22 -142 50 -228 95 -291
291 -546 564 -731 67 -45 108 -48 151 -9 58 54 44 119 -38 174 -259 176 -455
450 -511 714 -21 101 -23 123 -26 285 -3 151 3 220 30 355 13 62 64 202 96
260 196 360 522 576 989 654 36 6 81 13 100 16 60 10 401 13 475 5 170 -21
190 -24 310 -52 191 -44 417 -138 482 -200 45 -43 56 -101 56 -302 0 -218 -10
-306 -34 -306 -4 0 -28 11 -51 24 -189 104 -301 156 -443 204 -85 29 -195 60
-240 67 -11 2 -38 7 -60 10 -62 11 -324 13 -369 3 -23 -5 -63 -14 -91 -20
-215 -46 -387 -196 -451 -393 -28 -89 -27 -297 3 -378 49 -132 157 -254 318
-361 76 -50 256 -144 375 -195 134 -57 458 -206 499 -228 25 -14 75 -41 111
-61 200 -108 378 -255 491 -405 102 -136 185 -331 205 -482 3 -27 8 -53 10
-57 6 -10 6 -306 0 -338 -3 -14 -7 -45 -10 -70 -7 -51 -13 -84 -20 -108 -3 -9
-7 -28 -10 -42 -7 -40 -56 -170 -88 -235 -88 -175 -264 -379 -418 -480 -239
-157 -542 -262 -847 -292 -148 -15 -514 -8 -609 11 -12 2 -38 7 -59 10 -267
43 -575 157 -727 269 -56 42 -70 58 -82 96 -23 75 -27 116 -27 270 1 212 13
301 44 301 7 0 55 -25 107 -56 94 -56 268 -146 345 -179 110 -47 359 -119 447
-130 23 -3 57 -8 73 -11 52 -10 329 -11 394 -3 106 15 124 19 223 53 164 56
280 141 361 264 126 190 144 449 47 642 -38 74 -160 203 -255 269 -142 99
-332 194 -387 195 -89 1 -129 -115 -59 -172 9 -7 44 -25 78 -41 249 -117 422
-263 468 -397 32 -94 17 -243 -36 -350 -63 -127 -234 -230 -429 -260 -146 -22
-409 -7 -565 33 -203 51 -397 135 -602 260 -100 60 -153 83 -200 84 -121 5
-194 -55 -228 -187 -22 -89 -25 -125 -25 -294 1 -203 0 -184 16 -272 24 -135
70 -205 186 -285 104 -72 186 -114 323 -166 314 -119 591 -166 950 -161 121 1
234 5 250 7 17 3 55 8 85 11 30 4 62 9 70 11 8 2 31 7 50 10 152 26 344 88
507 166 495 235 809 680 859 1221 5 58 5 327 0 358 -2 14 -10 59 -16 100 -27
167 -113 371 -220 521 -181 255 -454 451 -920 659 -63 29 -128 58 -145 65 -16
8 -77 35 -135 60 -325 143 -500 267 -567 403 -38 79 -44 200 -13 292 41 122
116 192 255 240 77 26 136 34 265 34 242 0 418 -51 748 -216 183 -92 207 -102
255 -101 125 2 195 91 214 273 11 103 6 409 -7 479 -25 138 -88 216 -236 292
-124 65 -302 131 -409 154 -11 2 -60 13 -110 24 -49 11 -117 23 -150 27 -33 3
-69 8 -80 11 -23 6 -431 14 -436 9z"/>
<path d="M2054 2390 c-54 -22 -67 -111 -22 -156 69 -69 182 -8 164 89 -12 62
-77 93 -142 67z"/>
</g>
</svg>
